<?xml version="1.0" encoding="iso-8859-1"?>
<!-- Generator: Adobe Illustrator 19.0.0, SVG Export Plug-In . SVG Version: 6.00 Build 0)  -->
<svg xmlns:xlink="http://www.w3.org/1999/xlink" xmlns="http://www.w3.org/2000/svg" version="1.1" id="Layer_1" x="0px" y="0px" viewBox="0 0 512 1024" style="enable-background:new 0 0 512 1024;" xml:space="preserve" width="512px" height="1024px">
	<defs>
		<path id="left-column" d="M119.181,239.431h-17.102c-4.427,0-8.017,3.589-8.017,8.017s3.589,8.017,8.017,8.017h17.102    c4.427,0,8.017-3.589,8.017-8.017S123.608,239.431,119.181,239.431z" />
		<path id="right-column" d="M179.039,239.431h-25.654c-4.427,0-8.017,3.589-8.017,8.017s3.589,8.017,8.017,8.017h25.654    c4.427,0,8.017-3.589,8.017-8.017S183.467,239.431,179.039,239.431z" />
		<g id="row">
			<use xlink:href="#left-column" />
			<use xlink:href="#right-column" />
		</g>
		<path id="header-column" d="M196.142,128.268h-8.551c-4.427,0-8.017,3.589-8.017,8.017s3.589,8.017,8.017,8.017h8.551    c4.427,0,8.017-3.589,8.017-8.017S200.569,128.268,196.142,128.268z" />
		<path id="calc-button" d="M273.102,350.596H256c-9.136,0-16.568,7.432-16.568,16.568v17.102c0,9.136,7.432,16.568,16.568,16.568h17.102    c9.136,0,16.568-7.432,16.568-16.568v-17.102C289.67,358.028,282.238,350.596,273.102,350.596z M273.637,384.267    c0,0.295-0.239,0.534-0.534,0.534H256c-0.295,0-0.534-0.239-0.534-0.534v-17.102c0-0.295,0.239-0.534,0.534-0.534h17.102    c0.295,0,0.534,0.239,0.534,0.534V384.267z" />

		<g id="icon">
			<path d="M135.749,96.44V68.583c5.907,1.936,9.62,5.833,9.62,9.447c0,4.427,3.589,8.017,8.017,8.017s8.017-3.589,8.017-8.017    c0-12.784-10.768-23.198-25.654-25.983v-1.274c0-4.427-3.589-8.017-8.017-8.017s-8.017,3.589-8.017,8.017v1.274    c-14.885,2.786-25.654,13.2-25.654,25.983c0,17.862,14.266,25.369,25.654,29.69v27.858c-5.907-1.936-9.62-5.833-9.62-9.447    c0-4.427-3.589-8.017-8.017-8.017s-8.017,3.589-8.017,8.017c0,12.784,10.768,23.198,25.654,25.983v1.274    c0,4.427,3.589,8.017,8.017,8.017s8.017-3.589,8.017-8.017v-1.274c14.885-2.786,25.654-13.2,25.654-25.983    C161.403,108.268,147.137,100.761,135.749,96.44z M119.716,90.229c-7.992-3.917-9.62-7.338-9.62-12.199    c0-3.614,3.713-7.511,9.62-9.447V90.229z M135.749,135.577v-21.646c7.992,3.917,9.62,7.338,9.62,12.199    C145.369,129.744,141.656,133.641,135.749,135.577z" />
			<path d="M256,59.858h-68.409c-4.427,0-8.017,3.589-8.017,8.017c0,4.427,3.589,8.017,8.017,8.017H256    c4.427,0,8.017-3.589,8.017-8.017C264.017,63.448,260.427,59.858,256,59.858z" />
			<path d="M341.512,188.124H102.079c-4.427,0-8.017,3.589-8.017,8.017s3.589,8.017,8.017,8.017h239.433    c4.427,0,8.017-3.589,8.017-8.017S345.939,188.124,341.512,188.124z" />
			<use xlink:href="#row" />
			<use xlink:href="#row" transform="translate(0, 34.4)" />
			<use xlink:href="#row" transform="translate(0, 68.8)" />
			<use xlink:href="#row" transform="translate(0, 103.2)" />
			<use xlink:href="#row" transform="translate(0, 137.6)" />
			<path d="M273.102,94.063h-85.512c-4.427,0-8.017,3.589-8.017,8.017s3.589,8.017,8.017,8.017h85.512    c4.427,0,8.017-3.589,8.017-8.017S277.53,94.063,273.102,94.063z" />

			<use xlink:href="#header-column" />
			<use xlink:href="#header-column" transform="translate(42.7, 0)"  />
			<use xlink:href="#header-column" transform="translate(85.4, 0)"  />
			<use xlink:href="#header-column" transform="translate(128.1, 0)"  />

			<path d="M427.024,222.329h-34.739v-128.8c0-2.126-0.844-4.165-2.348-5.668L304.424,2.348C302.921,0.844,300.882,0,298.756,0    H76.425C62.574,0,51.306,11.268,51.306,25.119v410.455c0,13.851,11.268,25.119,25.119,25.119h128.802v17.637    c0,18.566,15.105,33.67,33.67,33.67h188.126c18.566,0,33.67-15.105,33.67-33.67V255.999    C460.694,237.433,445.589,222.329,427.024,222.329z M306.773,27.37l58.142,58.142h-40.505c-9.725,0-17.637-7.912-17.637-17.637    V27.37z M205.227,255.999v188.66H76.425c-5.01,0-9.086-4.076-9.086-9.086V25.119c0-5.01,4.076-9.086,9.086-9.086h214.314v51.842    c0,18.566,15.105,33.67,33.67,33.67h51.842v120.783H238.898C220.332,222.329,205.227,237.433,205.227,255.999z M444.661,478.33    c0,9.725-7.912,17.637-17.637,17.637H238.898c-9.725,0-17.637-7.912-17.637-17.637V255.999c0-9.725,7.912-17.637,17.637-17.637    h188.126c9.725,0,17.637,7.912,17.637,17.637V478.33z" />
			<path d="M409.921,256.533H256c-9.136,0-16.568,7.432-16.568,16.568v34.205c0,9.136,7.432,16.568,16.568,16.568h153.921    c9.136,0,16.568-7.432,16.568-16.568v-34.205C426.489,263.965,419.057,256.533,409.921,256.533z M410.456,307.306    c0,0.295-0.239,0.534-0.534,0.534H256c-0.295,0-0.534-0.239-0.534-0.534v-34.205c0-0.295,0.239-0.534,0.534-0.534h153.921    c0.295,0,0.534,0.239,0.534,0.534V307.306z" />

			<path d="M273.102,350.596H256c-9.136,0-16.568,7.432-16.568,16.568v17.102c0,9.136,7.432,16.568,16.568,16.568h17.102    c9.136,0,16.568-7.432,16.568-16.568v-17.102C289.67,358.028,282.238,350.596,273.102,350.596z M273.637,384.267    c0,0.295-0.239,0.534-0.534,0.534H256c-0.295,0-0.534-0.239-0.534-0.534v-17.102c0-0.295,0.239-0.534,0.534-0.534h17.102    c0.295,0,0.534,0.239,0.534,0.534V384.267z" />
			<use xlink:href="#calc-button" />
			<use xlink:href="#calc-button" transform="translate(68.4, 0)" />
			<use xlink:href="#calc-button" transform="translate(136.8, 0)" />
			<use xlink:href="#calc-button" transform="translate(0, 68.4)" />
			<use xlink:href="#calc-button" transform="translate(68.4, 68.4)" />
			<use xlink:href="#calc-button" transform="translate(136.8, 68.4)" />
		</g>
	</defs>

	<use xlink:href="#icon" fill="#ffffff" />
	<use xlink:href="#icon" transform="translate(0, 512)" fill="#0b8043" />

</svg>
