<?xml version="1.0" encoding="iso-8859-1"?>
<!-- Generator: Adobe Illustrator 19.0.0, SVG Export Plug-In . SVG Version: 6.00 Build 0)  -->
<svg xmlns="http://www.w3.org/2000/svg" xmlns:xlink="http://www.w3.org/1999/xlink" version="1.1" id="Capa_1" x="0px" y="0px" viewBox="0 0 60 60" style="enable-background:new 0 0 60 60;" xml:space="preserve" width="512px" height="512px">
<g>
	<g>
		<path d="M60,37L60,37V1c0-0.6-0.4-1-1-1H1C0.4,0,0,0.4,0,1v47c0,0.6,0.4,1,1,1h10v-2H2V2h56v34H48c-0.6,0-1,0.4-1,1v10H25v2h23    c0.3,0,0.5-0.1,0.7-0.3l11-11c0.1-0.1,0.1-0.2,0.2-0.3v-0.1C60,37.2,60,37.1,60,37z M49,38h7.6l-3.8,3.8L49,45.6V38z" fill="#FFFFFF"/>
		<path d="M18.9,9.7C18.8,9.3,18.4,9,18,9s-0.8,0.3-0.9,0.7l-2.9,8.7C14.1,18.6,14,18.8,14,19v33v7c0,0.6,0.4,1,1,1h6    c0.6,0,1-0.4,1-1v-7V19c0-0.2-0.1-0.5-0.2-0.6L18.9,9.7z M16,20h1v31h-1V20z M19,20h1v31h-1V20z M18,13.2l1.6,4.8h-3.2L18,13.2z     M20,58h-4v-5h1h2h1V58z" fill="#FFFFFF"/>
		<path d="M35,6c-5,0-9,4-9,9v2h2v-2c0-3.9,3.1-7,7-7s7,3.1,7,7v2h2v-2C44,10,40,6,35,6z" fill="#FFFFFF"/>
		<path d="M54,16v-2h-2v2c0,3.9-3.1,7-7,7s-7-3.1-7-7v-2h-2v2c0,5,4,9,9,9S54,21,54,16z" fill="#FFFFFF"/>
		<path d="M25,33v10c0,0.6,0.4,1,1,1h10c0.6,0,1-0.4,1-1V33c0-0.6-0.4-1-1-1H26C25.4,32,25,32.4,25,33z M27,34h8v8h-8V34z" fill="#FFFFFF"/>
		<path d="M39,35v2h2c0.6,0,1-0.4,1-1v-8c0-0.6-0.4-1-1-1h-8c-0.6,0-1,0.4-1,1v2h2v-1h6v6H39z" fill="#FFFFFF"/>
		<rect x="6" y="5" width="2" height="2" fill="#FFFFFF"/>
		<rect x="10" y="5" width="2" height="2" fill="#FFFFFF"/>
		<rect x="14" y="5" width="2" height="2" fill="#FFFFFF"/>
		<rect x="10" y="9" width="2" height="2" fill="#FFFFFF"/>
		<rect x="6" y="9" width="2" height="2" fill="#FFFFFF"/>
		<rect x="6" y="13" width="2" height="2" fill="#FFFFFF"/>
		<rect x="6" y="17" width="2" height="2" fill="#FFFFFF"/>
		<rect x="6" y="21" width="2" height="2" fill="#FFFFFF"/>
		<rect x="6" y="25" width="2" height="2" fill="#FFFFFF"/>
		<rect x="6" y="29" width="2" height="2" fill="#FFFFFF"/>
		<rect x="6" y="33" width="2" height="2" fill="#FFFFFF"/>
		<rect x="6" y="37" width="2" height="2" fill="#FFFFFF"/>
		<rect x="6" y="41" width="2" height="2" fill="#FFFFFF"/>
	</g>
</g>
<g>
</g>
<g>
</g>
<g>
</g>
<g>
</g>
<g>
</g>
<g>
</g>
<g>
</g>
<g>
</g>
<g>
</g>
<g>
</g>
<g>
</g>
<g>
</g>
<g>
</g>
<g>
</g>
<g>
</g>
</svg>
